<?xml version="1.0" standalone="no"?>
<!DOCTYPE svg PUBLIC "-//W3C//DTD SVG 20010904//EN"
 "http://www.w3.org/TR/2001/REC-SVG-20010904/DTD/svg10.dtd">
<svg version="1.0" xmlns="http://www.w3.org/2000/svg"
 width="900.000000pt" height="225.000000pt" viewBox="0 0 900.000000 225.000000"
 preserveAspectRatio="xMidYMid meet">
<metadata>
Created by potrace 1.10, written by Peter Selinger 2001-2011
</metadata>
<g transform="translate(0.000000,225.000000) scale(0.100000,-0.100000)"
fill="#000000" stroke="none">
<path d="M2175 2091 c-48 -7 -85 -17 -170 -48 -143 -52 -311 -172 -392 -279
-115 -150 -152 -224 -193 -384 -28 -108 -28 -320 1 -439 11 -47 25 -90 30 -96
5 -5 9 -17 9 -27 0 -23 55 -127 112 -209 54 -80 155 -179 238 -234 68 -45 211
-115 234 -115 7 0 29 -6 47 -13 19 -8 85 -20 146 -27 90 -10 132 -10 210 0
125 15 264 57 334 99 19 12 41 24 49 28 8 3 50 33 93 65 65 50 105 91 191 199
20 25 86 139 86 149 0 4 6 21 14 37 34 69 50 136 68 281 12 92 6 170 -21 302
-32 160 -127 324 -263 457 -127 125 -212 174 -408 238 -60 19 -322 30 -415 16z"/>
<path d="M6550 2091 c-110 -20 -235 -65 -318 -116 -79 -48 -117 -79 -188 -149
-70 -71 -101 -109 -149 -188 -35 -57 -72 -146 -101 -243 -27 -88 -27 -387 0
-465 10 -30 25 -75 33 -100 22 -65 49 -118 107 -210 30 -47 219 -240 235 -240
6 0 27 -12 48 -26 47 -32 178 -94 199 -94 8 0 24 -5 34 -10 10 -6 72 -17 137
-26 101 -14 133 -15 223 -5 141 17 198 33 325 91 163 75 348 260 425 425 29
63 45 101 59 145 17 51 41 214 41 280 0 66 -24 229 -41 280 -21 62 -65 161
-94 208 -106 174 -292 331 -470 395 -131 47 -140 49 -300 52 -88 2 -180 0
-205 -4z"/>
<path d="M1160 1535 c-7 -8 -17 -15 -22 -15 -6 0 -47 -22 -92 -49 -130 -79
-150 -90 -171 -101 -11 -6 -33 -19 -50 -30 -16 -11 -39 -24 -51 -29 -19 -8
-136 -76 -174 -101 -8 -6 -24 -15 -35 -20 -11 -6 -33 -19 -50 -30 -16 -11 -37
-23 -45 -27 -8 -4 -59 -33 -113 -65 -55 -32 -102 -58 -106 -58 -4 0 -18 -11
-30 -24 -25 -27 -26 -74 -1 -87 8 -5 58 -34 110 -65 52 -31 103 -60 115 -65
11 -5 34 -18 50 -29 17 -11 37 -23 45 -27 8 -4 69 -39 135 -78 66 -39 127 -75
135 -78 8 -4 29 -16 45 -27 17 -11 37 -23 45 -27 8 -4 58 -32 110 -63 52 -31
102 -59 110 -63 8 -4 22 -12 31 -19 9 -6 24 -8 33 -5 35 14 14 177 -24 177 -4
0 -43 20 -84 45 -42 25 -78 45 -80 45 -3 0 -37 19 -78 43 -40 24 -80 46 -88
50 -8 4 -37 21 -65 38 -27 16 -63 37 -80 45 -16 8 -43 23 -60 34 -37 23 -98
57 -147 83 -32 16 -36 22 -27 38 5 10 24 26 42 34 18 8 55 27 82 44 28 16 73
42 100 57 89 49 100 55 130 74 17 11 44 26 60 34 17 8 53 29 80 45 28 17 57
34 65 38 8 4 52 28 96 55 88 51 90 55 93 144 2 58 -17 86 -39 59z"/>
<path d="M3486 1543 c-3 -4 -6 -39 -6 -79 0 -81 0 -82 105 -138 28 -15 73 -41
100 -57 28 -17 64 -37 80 -45 17 -8 44 -23 60 -34 17 -11 39 -24 50 -30 11 -5
47 -26 80 -45 33 -19 69 -39 80 -45 11 -6 43 -24 70 -41 28 -16 64 -36 82 -44
18 -8 37 -24 43 -35 9 -17 7 -22 -12 -30 -13 -6 -50 -26 -83 -45 -33 -19 -69
-40 -80 -45 -11 -6 -27 -14 -35 -20 -28 -18 -172 -100 -176 -100 -4 0 -148
-83 -174 -100 -8 -6 -24 -14 -36 -19 -39 -17 -129 -74 -141 -89 -8 -9 -13 -44
-13 -84 0 -60 2 -68 19 -68 16 0 173 85 241 130 8 6 24 15 35 20 11 6 34 19
50 30 17 11 39 24 50 29 12 5 61 33 110 63 50 30 97 57 105 61 8 4 29 16 45
27 17 11 39 24 50 29 12 5 61 33 110 63 50 30 97 57 105 61 46 22 76 47 85 71
8 24 6 30 -15 47 -14 11 -34 24 -45 29 -11 6 -27 14 -35 20 -38 25 -155 93
-174 101 -12 5 -34 18 -51 29 -16 11 -39 24 -50 30 -11 5 -27 14 -35 20 -38
24 -206 123 -225 131 -11 5 -33 18 -50 29 -16 11 -37 23 -45 27 -8 4 -64 37
-125 73 -119 72 -140 82 -149 73z"/>
<path d="M5535 1540 c-4 -6 -17 -16 -28 -21 -12 -5 -35 -18 -52 -29 -16 -11
-39 -24 -50 -29 -12 -5 -61 -33 -110 -63 -50 -30 -97 -57 -105 -61 -8 -4 -28
-16 -45 -27 -16 -11 -39 -24 -50 -29 -12 -5 -61 -33 -110 -63 -50 -30 -97 -57
-105 -61 -8 -4 -28 -16 -45 -27 -16 -11 -39 -24 -50 -30 -101 -52 -205 -118
-212 -135 -9 -25 5 -61 29 -73 13 -6 50 -27 83 -47 33 -19 69 -39 80 -45 11
-6 34 -19 50 -30 17 -11 37 -23 45 -27 8 -4 58 -32 110 -63 52 -31 102 -59
110 -63 8 -4 29 -16 45 -27 17 -11 37 -23 45 -27 8 -4 69 -39 135 -78 66 -39
127 -74 135 -78 8 -4 29 -16 45 -27 40 -27 68 -39 78 -33 4 2 7 37 7 77 0 82
-7 92 -90 132 -8 4 -48 27 -88 51 -41 24 -75 43 -77 43 -2 0 -36 19 -77 43
-40 24 -80 46 -88 50 -8 4 -37 21 -65 38 -27 16 -63 37 -80 45 -16 8 -43 23
-60 34 -16 11 -51 30 -77 42 -26 13 -48 28 -48 34 0 15 27 38 75 64 22 11 47
25 55 30 32 20 166 96 180 103 8 4 42 23 75 42 33 19 69 40 80 45 11 6 34 19
50 30 17 11 44 26 60 34 17 8 53 29 80 45 28 17 60 35 73 41 21 9 23 15 20 92
-3 77 -15 107 -33 78z"/>
<path d="M7857 1543 c-4 -3 -7 -39 -7 -80 l0 -73 38 -23 c20 -13 44 -26 52
-30 8 -4 22 -11 30 -17 21 -14 162 -95 180 -103 8 -4 38 -21 65 -38 28 -16 64
-37 80 -45 17 -8 44 -23 60 -34 17 -11 39 -24 50 -30 11 -5 47 -26 80 -45 33
-19 70 -39 82 -44 12 -6 27 -19 33 -31 9 -17 7 -22 -12 -31 -13 -5 -32 -15
-43 -22 -11 -7 -52 -30 -90 -52 -39 -22 -78 -44 -87 -50 -9 -5 -39 -22 -65
-36 -26 -15 -64 -36 -83 -48 -19 -11 -42 -24 -50 -28 -15 -7 -152 -85 -180
-103 -8 -5 -35 -19 -59 -31 -73 -37 -81 -50 -81 -128 0 -39 5 -73 10 -76 6 -4
43 13 83 36 40 24 83 49 97 57 14 7 39 22 55 32 17 11 39 24 50 29 19 8 187
107 225 131 8 6 24 15 35 20 11 6 34 19 50 30 17 11 39 24 51 29 11 5 50 27
85 48 35 22 71 42 79 46 8 4 29 16 45 27 17 10 50 29 74 42 45 24 71 52 71 78
0 17 -30 46 -63 61 -12 5 -35 18 -52 29 -16 11 -39 24 -50 30 -11 5 -27 14
-35 20 -22 15 -212 125 -230 133 -8 4 -28 16 -45 27 -16 11 -37 23 -45 27 -8
4 -58 32 -110 63 -52 31 -102 59 -110 63 -8 4 -28 16 -45 27 -16 11 -37 23
-45 27 -8 4 -47 26 -86 50 -77 46 -77 46 -87 36z"/>
</g>
</svg>
